%TF.GenerationSoftware,KiCad,Pcbnew,10.0.6*%
%TF.CreationDate,2026-10-07T22:33:56+01:00*%
%TF.ProjectId,project1_USB-C 5v Power Suplly PCB,70726f6a-6563-4743-915f-5553422d4320,rev?*%
%TF.SameCoordinates,Original*%
%TF.FileFunction,Copper,L1,Top*%
%TF.FilePolarity,Positive*%
%FSLAX46Y46*%
G04 Gerber Fmt 4.6, Leading zero omitted, Abs format (unit mm)*
G04 Created by KiCad (PCBNEW 10.0.6) date 2026-10-07 22:33:56*
%MOMM*%
%LPD*%
G01*
G04 APERTURE LIST*
G04 Aperture macros list*
%AMRoundRect*
0 Rectangle with rounded corners*
0 $1 Rounding radius*
0 $2 $3 $4 $5 $6 $7 $8 $9 X,Y pos of 4 corners*
0 Add a 4 corners polygon primitive as box body*
4,1,4,$2,$3,$4,$5,$6,$7,$8,$9,$2,$3,0*
0 Add four circle primitives for the rounded corners*
1,1,$1+$1,$2,$3*
1,1,$1+$1,$4,$5*
1,1,$1+$1,$6,$7*
1,1,$1+$1,$8,$9*
0 Add four rect primitives between the rounded corners*
20,1,$1+$1,$2,$3,$4,$5,0*
20,1,$1+$1,$4,$5,$6,$7,0*
20,1,$1+$1,$6,$7,$8,$9,0*
20,1,$1+$1,$8,$9,$2,$3,0*%
G04 Aperture macros list end*
%TA.AperFunction,SMDPad,CuDef*%
%ADD10RoundRect,0.150000X-0.150000X-0.425000X0.150000X-0.425000X0.150000X0.425000X-0.150000X0.425000X0*%
%TD*%
%TA.AperFunction,SMDPad,CuDef*%
%ADD11RoundRect,0.075000X-0.075000X-0.500000X0.075000X-0.500000X0.075000X0.500000X-0.075000X0.500000X0*%
%TD*%
%TA.AperFunction,ComponentPad*%
%ADD12O,1.000000X2.100000*%
%TD*%
%TA.AperFunction,ComponentPad*%
%ADD13O,1.000000X1.800000*%
%TD*%
%TA.AperFunction,SMDPad,CuDef*%
%ADD14RoundRect,0.250000X-0.262500X-0.450000X0.262500X-0.450000X0.262500X0.450000X-0.262500X0.450000X0*%
%TD*%
%TA.AperFunction,ComponentPad*%
%ADD15R,1.700000X1.700000*%
%TD*%
%TA.AperFunction,ComponentPad*%
%ADD16C,1.700000*%
%TD*%
%TA.AperFunction,SMDPad,CuDef*%
%ADD17RoundRect,0.250000X-0.375000X-0.625000X0.375000X-0.625000X0.375000X0.625000X-0.375000X0.625000X0*%
%TD*%
%TA.AperFunction,SMDPad,CuDef*%
%ADD18RoundRect,0.250000X-1.000000X-0.900000X1.000000X-0.900000X1.000000X0.900000X-1.000000X0.900000X0*%
%TD*%
%TA.AperFunction,SMDPad,CuDef*%
%ADD19RoundRect,0.250000X-0.250000X-0.475000X0.250000X-0.475000X0.250000X0.475000X-0.250000X0.475000X0*%
%TD*%
%TA.AperFunction,Conductor*%
%ADD20C,0.200000*%
%TD*%
G04 APERTURE END LIST*
D10*
%TO.P,J1,A1,GND_A1*%
%TO.N,GND*%
X116800000Y-84320000D03*
%TO.P,J1,A4,VBUS_A4*%
%TO.N,Net-(F1-Pad1)*%
X117600000Y-84320000D03*
D11*
%TO.P,J1,A5,CC1_A5*%
%TO.N,Net-(J1-CC1)*%
X118750000Y-84320000D03*
%TO.P,J1,A6,D+_A6*%
%TO.N,unconnected-(J1-D+-PadA6)*%
X119750000Y-84320000D03*
%TO.P,J1,A7,D-_A7*%
%TO.N,unconnected-(J1-D--PadA7)*%
X120250000Y-84320000D03*
%TO.P,J1,A8,SBU1_A8*%
%TO.N,unconnected-(J1-SBU1-PadA8)*%
X121250000Y-84320000D03*
D10*
%TO.P,J1,A9,VBUS_A9*%
%TO.N,Net-(F1-Pad1)*%
X122400000Y-84320000D03*
%TO.P,J1,A12,GND_A12*%
%TO.N,GND*%
X123200000Y-84320000D03*
%TO.P,J1,B1,GND_B1*%
X123200000Y-84320000D03*
%TO.P,J1,B4,VBUS_B4*%
%TO.N,Net-(F1-Pad1)*%
X122400000Y-84320000D03*
D11*
%TO.P,J1,B5,CC2_B5*%
%TO.N,Net-(J1-CC2)*%
X121750000Y-84320000D03*
%TO.P,J1,B6,D+_B6*%
%TO.N,unconnected-(J1-D+-PadB6)*%
X120750000Y-84320000D03*
%TO.P,J1,B7,D-_B7*%
%TO.N,unconnected-(J1-D--PadB7)*%
X119250000Y-84320000D03*
%TO.P,J1,B8,SBU2_B8*%
%TO.N,unconnected-(J1-SBU2-PadB8)*%
X118250000Y-84320000D03*
D10*
%TO.P,J1,B9,VBUS_B9*%
%TO.N,Net-(F1-Pad1)*%
X117600000Y-84320000D03*
%TO.P,J1,B12,GND_B12*%
%TO.N,GND*%
X116800000Y-84320000D03*
D12*
%TO.P,J1,SH,SHIELD_SH*%
X115680000Y-84895000D03*
D13*
X115680000Y-89075000D03*
D12*
X124320000Y-84895000D03*
D13*
X124320000Y-89075000D03*
%TD*%
D14*
%TO.P,R2,1*%
%TO.N,Net-(J1-CC2)*%
X126000000Y-81500000D03*
%TO.P,R2,2*%
%TO.N,GND*%
X127825000Y-81500000D03*
%TD*%
%TO.P,R1,1*%
%TO.N,Net-(J1-CC1)*%
X122175000Y-81500000D03*
%TO.P,R1,2*%
%TO.N,GND*%
X124000000Y-81500000D03*
%TD*%
D15*
%TO.P,J2,1,Pin_1_1*%
%TO.N,+5V*%
X145000000Y-83500000D03*
D16*
%TO.P,J2,2,Pin_2_2*%
%TO.N,GND*%
X145000000Y-86040000D03*
%TD*%
D17*
%TO.P,F1,1*%
%TO.N,Net-(F1-Pad1)*%
X129500000Y-84500000D03*
%TO.P,F1,2*%
%TO.N,+5V*%
X132300000Y-84500000D03*
%TD*%
D18*
%TO.P,D1,1,A1_1*%
%TO.N,GND*%
X129200000Y-90000000D03*
%TO.P,D1,2,A2_2*%
%TO.N,+5V*%
X133500000Y-90000000D03*
%TD*%
D19*
%TO.P,C2,2*%
%TO.N,+5V*%
X141500000Y-84500000D03*
%TO.P,C2,1*%
%TO.N,GND*%
X139600000Y-84500000D03*
%TD*%
%TO.P,C1,1*%
%TO.N,GND*%
X135100000Y-84500000D03*
%TO.P,C1,2*%
%TO.N,+5V*%
X137000000Y-84500000D03*
%TD*%
%TO.N,GND*%
D20*
X132100000Y-81500000D02*
X135100000Y-84500000D01*
X127825000Y-81500000D02*
X132100000Y-81500000D01*
%TO.N,Net-(F1-Pad1)*%
X128445000Y-83445000D02*
X129500000Y-84500000D01*
X122859448Y-83445000D02*
X128445000Y-83445000D01*
X122400000Y-83904448D02*
X122859448Y-83445000D01*
X122400000Y-84320000D02*
X122400000Y-83904448D01*
X118017590Y-83445000D02*
X128445000Y-83445000D01*
X117600000Y-83862590D02*
X118017590Y-83445000D01*
X117600000Y-84320000D02*
X117600000Y-83862590D01*
%TO.N,GND*%
X140740000Y-86040000D02*
X145000000Y-86040000D01*
X139500000Y-84800000D02*
X140740000Y-86040000D01*
X139600000Y-84700000D02*
X139500000Y-84800000D01*
X139600000Y-84500000D02*
X139600000Y-84700000D01*
%TO.N,Net-(J1-CC2)*%
X122785406Y-86245000D02*
X121750000Y-85209594D01*
X130425000Y-85359744D02*
X129539744Y-86245000D01*
X130425000Y-83640256D02*
X130425000Y-85359744D01*
X121750000Y-85209594D02*
X121750000Y-84320000D01*
X129829744Y-83045000D02*
X130425000Y-83640256D01*
X127545000Y-83045000D02*
X129829744Y-83045000D01*
X126000000Y-81500000D02*
X127545000Y-83045000D01*
X129539744Y-86245000D02*
X122785406Y-86245000D01*
%TO.N,Net-(J1-CC1)*%
X114880000Y-85776371D02*
X114880000Y-84013629D01*
X114880000Y-84013629D02*
X117393629Y-81500000D01*
X115348629Y-86245000D02*
X114880000Y-85776371D01*
X117432410Y-86245000D02*
X115348629Y-86245000D01*
X118750000Y-84927410D02*
X117432410Y-86245000D01*
X118750000Y-84320000D02*
X118750000Y-84927410D01*
X117393629Y-81500000D02*
X122175000Y-81500000D01*
%TO.N,+5V*%
X142500000Y-83500000D02*
X145000000Y-83500000D01*
X141500000Y-84500000D02*
X142500000Y-83500000D01*
X140475000Y-83475000D02*
X141500000Y-84500000D01*
X138025000Y-83475000D02*
X140475000Y-83475000D01*
X137000000Y-84500000D02*
X138025000Y-83475000D01*
X133325000Y-85525000D02*
X135975000Y-85525000D01*
X135975000Y-85525000D02*
X137000000Y-84500000D01*
X132300000Y-84500000D02*
X133325000Y-85525000D01*
X132300000Y-88300000D02*
X132300000Y-84500000D01*
X133500000Y-89500000D02*
X132300000Y-88300000D01*
X133500000Y-90000000D02*
X133500000Y-89500000D01*
%TD*%
%TA.AperFunction,Conductor*%
%TO.N,GND*%
G36*
X146942539Y-79020185D02*
G01*
X146988294Y-79072989D01*
X146999500Y-79124500D01*
X146999500Y-93375500D01*
X146979815Y-93442539D01*
X146927011Y-93488294D01*
X146875500Y-93499500D01*
X114624500Y-93499500D01*
X114557461Y-93479815D01*
X114511706Y-93427011D01*
X114500500Y-93375500D01*
X114500500Y-86545468D01*
X114520185Y-86478429D01*
X114572989Y-86432674D01*
X114642147Y-86422730D01*
X114705703Y-86451755D01*
X114712181Y-86457787D01*
X114863768Y-86609374D01*
X114863778Y-86609385D01*
X114868108Y-86613715D01*
X114868109Y-86613716D01*
X114979913Y-86725520D01*
X114979915Y-86725521D01*
X114979919Y-86725524D01*
X115116838Y-86804573D01*
X115116845Y-86804577D01*
X115228648Y-86834534D01*
X115269571Y-86845500D01*
X115269572Y-86845500D01*
X117345741Y-86845500D01*
X117345757Y-86845501D01*
X117353353Y-86845501D01*
X117511464Y-86845501D01*
X117511467Y-86845501D01*
X117664195Y-86804577D01*
X117714314Y-86775639D01*
X117801126Y-86725520D01*
X117912930Y-86613716D01*
X117912930Y-86613714D01*
X117923138Y-86603507D01*
X117923139Y-86603504D01*
X119094826Y-85431819D01*
X119156149Y-85398334D01*
X119182507Y-85395500D01*
X119362713Y-85395500D01*
X119362720Y-85395500D01*
X119475236Y-85380687D01*
X119475236Y-85380686D01*
X119483295Y-85379626D01*
X119483698Y-85382689D01*
X119516302Y-85382689D01*
X119516705Y-85379626D01*
X119524763Y-85380686D01*
X119524764Y-85380687D01*
X119637280Y-85395500D01*
X119637287Y-85395500D01*
X119862713Y-85395500D01*
X119862720Y-85395500D01*
X119975236Y-85380687D01*
X119975236Y-85380686D01*
X119983295Y-85379626D01*
X119983698Y-85382689D01*
X120016302Y-85382689D01*
X120016705Y-85379626D01*
X120024763Y-85380686D01*
X120024764Y-85380687D01*
X120137280Y-85395500D01*
X120137287Y-85395500D01*
X120362713Y-85395500D01*
X120362720Y-85395500D01*
X120475236Y-85380687D01*
X120475236Y-85380686D01*
X120483295Y-85379626D01*
X120483698Y-85382689D01*
X120516302Y-85382689D01*
X120516705Y-85379626D01*
X120524763Y-85380686D01*
X120524764Y-85380687D01*
X120637280Y-85395500D01*
X120637287Y-85395500D01*
X120862713Y-85395500D01*
X120862720Y-85395500D01*
X120975236Y-85380687D01*
X120975236Y-85380686D01*
X120983295Y-85379626D01*
X120983698Y-85382689D01*
X121016302Y-85382689D01*
X121016705Y-85379626D01*
X121024763Y-85380686D01*
X121024764Y-85380687D01*
X121105500Y-85391316D01*
X121169397Y-85419582D01*
X121196702Y-85452255D01*
X121207387Y-85470762D01*
X121207389Y-85470764D01*
X121207390Y-85470766D01*
X121237429Y-85522795D01*
X121269479Y-85578308D01*
X121269481Y-85578311D01*
X121388349Y-85697179D01*
X121388355Y-85697184D01*
X122300545Y-86609374D01*
X122300555Y-86609385D01*
X122304885Y-86613715D01*
X122304886Y-86613716D01*
X122416690Y-86725520D01*
X122503501Y-86775639D01*
X122503503Y-86775641D01*
X122553614Y-86804573D01*
X122553621Y-86804577D01*
X122706348Y-86845500D01*
X122706349Y-86845500D01*
X129453075Y-86845500D01*
X129453091Y-86845501D01*
X129460687Y-86845501D01*
X129618798Y-86845501D01*
X129618801Y-86845501D01*
X129771529Y-86804577D01*
X129821648Y-86775639D01*
X129908460Y-86725520D01*
X130020264Y-86613716D01*
X130020264Y-86613714D01*
X130030472Y-86603507D01*
X130030474Y-86603504D01*
X130783506Y-85850472D01*
X130783511Y-85850468D01*
X130793714Y-85840264D01*
X130793716Y-85840264D01*
X130905520Y-85728460D01*
X130969793Y-85617135D01*
X130984577Y-85591529D01*
X131015084Y-85477675D01*
X131051448Y-85418018D01*
X131114295Y-85387489D01*
X131183671Y-85395784D01*
X131237549Y-85440269D01*
X131240397Y-85444676D01*
X131322822Y-85578310D01*
X131332288Y-85593656D01*
X131456344Y-85717712D01*
X131605666Y-85809814D01*
X131614498Y-85812740D01*
X131671944Y-85852508D01*
X131698771Y-85917022D01*
X131699500Y-85930448D01*
X131699500Y-88213330D01*
X131699499Y-88213348D01*
X131699499Y-88379054D01*
X131699498Y-88379054D01*
X131740423Y-88531785D01*
X131769358Y-88581900D01*
X131769359Y-88581905D01*
X131769360Y-88581905D01*
X131813781Y-88658847D01*
X131830252Y-88726747D01*
X131815939Y-88773050D01*
X131818238Y-88774122D01*
X131815186Y-88780665D01*
X131815186Y-88780666D01*
X131760001Y-88947203D01*
X131760001Y-88947204D01*
X131760000Y-88947204D01*
X131749500Y-89049983D01*
X131749500Y-90950001D01*
X131749501Y-90950018D01*
X131760000Y-91052796D01*
X131760001Y-91052799D01*
X131815185Y-91219331D01*
X131815186Y-91219334D01*
X131907288Y-91368656D01*
X132031344Y-91492712D01*
X132180666Y-91584814D01*
X132347203Y-91639999D01*
X132449991Y-91650500D01*
X134550008Y-91650499D01*
X134652797Y-91639999D01*
X134819334Y-91584814D01*
X134968656Y-91492712D01*
X135092712Y-91368656D01*
X135184814Y-91219334D01*
X135239999Y-91052797D01*
X135250500Y-90950009D01*
X135250499Y-89049992D01*
X135239999Y-88947203D01*
X135184814Y-88780666D01*
X135092712Y-88631344D01*
X134968656Y-88507288D01*
X134819334Y-88415186D01*
X134652797Y-88360001D01*
X134652795Y-88360000D01*
X134550016Y-88349500D01*
X134550009Y-88349500D01*
X133250097Y-88349500D01*
X133183058Y-88329815D01*
X133162416Y-88313181D01*
X132936819Y-88087584D01*
X132903334Y-88026261D01*
X132900500Y-87999903D01*
X132900500Y-86188086D01*
X132920185Y-86121047D01*
X132972989Y-86075292D01*
X133042147Y-86065348D01*
X133086502Y-86080701D01*
X133093215Y-86084577D01*
X133245943Y-86125501D01*
X133245946Y-86125501D01*
X133411653Y-86125501D01*
X133411669Y-86125500D01*
X135888331Y-86125500D01*
X135888347Y-86125501D01*
X135895943Y-86125501D01*
X136054054Y-86125501D01*
X136054057Y-86125501D01*
X136206785Y-86084577D01*
X136256904Y-86055639D01*
X136343716Y-86005520D01*
X136455520Y-85893716D01*
X136455520Y-85893714D01*
X136465728Y-85883507D01*
X136465730Y-85883504D01*
X136589138Y-85760095D01*
X136650459Y-85726612D01*
X136689421Y-85724420D01*
X136699991Y-85725500D01*
X137300008Y-85725499D01*
X137300016Y-85725498D01*
X137300019Y-85725498D01*
X137356302Y-85719748D01*
X137402797Y-85714999D01*
X137569334Y-85659814D01*
X137718656Y-85567712D01*
X137842712Y-85443656D01*
X137934814Y-85294334D01*
X137989999Y-85127797D01*
X138000500Y-85025009D01*
X138000499Y-84400096D01*
X138020183Y-84333058D01*
X138036818Y-84312416D01*
X138237416Y-84111819D01*
X138298739Y-84078334D01*
X138325097Y-84075500D01*
X140174903Y-84075500D01*
X140241942Y-84095185D01*
X140262584Y-84111819D01*
X140463181Y-84312416D01*
X140496666Y-84373739D01*
X140499500Y-84400097D01*
X140499500Y-85025001D01*
X140499501Y-85025019D01*
X140510000Y-85127796D01*
X140510001Y-85127799D01*
X140565185Y-85294331D01*
X140565187Y-85294336D01*
X140600069Y-85350888D01*
X140657288Y-85443656D01*
X140781344Y-85567712D01*
X140930666Y-85659814D01*
X141097203Y-85714999D01*
X141199991Y-85725500D01*
X141800008Y-85725499D01*
X141800016Y-85725498D01*
X141800019Y-85725498D01*
X141856302Y-85719748D01*
X141902797Y-85714999D01*
X142069334Y-85659814D01*
X142218656Y-85567712D01*
X142342712Y-85443656D01*
X142434814Y-85294334D01*
X142489999Y-85127797D01*
X142500500Y-85025009D01*
X142500499Y-84400097D01*
X142520183Y-84333059D01*
X142536818Y-84312417D01*
X142712417Y-84136819D01*
X142773740Y-84103334D01*
X142800098Y-84100500D01*
X143525501Y-84100500D01*
X143592540Y-84120185D01*
X143638295Y-84172989D01*
X143649501Y-84224500D01*
X143649501Y-84397876D01*
X143655908Y-84457483D01*
X143706202Y-84592328D01*
X143706206Y-84592335D01*
X143792452Y-84707544D01*
X143792455Y-84707547D01*
X143907664Y-84793793D01*
X143907671Y-84793797D01*
X144042517Y-84844091D01*
X144042516Y-84844091D01*
X144049444Y-84844835D01*
X144102127Y-84850500D01*
X145897872Y-84850499D01*
X145957483Y-84844091D01*
X146092331Y-84793796D01*
X146207546Y-84707546D01*
X146293796Y-84592331D01*
X146344091Y-84457483D01*
X146350500Y-84397873D01*
X146350499Y-82602128D01*
X146344091Y-82542517D01*
X146333588Y-82514358D01*
X146293797Y-82407671D01*
X146293793Y-82407664D01*
X146207547Y-82292455D01*
X146207544Y-82292452D01*
X146092335Y-82206206D01*
X146092328Y-82206202D01*
X145957482Y-82155908D01*
X145957483Y-82155908D01*
X145897883Y-82149501D01*
X145897881Y-82149500D01*
X145897873Y-82149500D01*
X145897864Y-82149500D01*
X144102129Y-82149500D01*
X144102123Y-82149501D01*
X144042516Y-82155908D01*
X143907671Y-82206202D01*
X143907664Y-82206206D01*
X143792455Y-82292452D01*
X143792452Y-82292455D01*
X143706206Y-82407664D01*
X143706202Y-82407671D01*
X143655908Y-82542517D01*
X143649501Y-82602116D01*
X143649501Y-82602123D01*
X143649500Y-82602135D01*
X143649500Y-82775500D01*
X143629815Y-82842539D01*
X143577011Y-82888294D01*
X143525500Y-82899500D01*
X142586670Y-82899500D01*
X142586654Y-82899499D01*
X142579058Y-82899499D01*
X142420943Y-82899499D01*
X142361508Y-82915425D01*
X142268214Y-82940423D01*
X142268209Y-82940426D01*
X142131290Y-83019475D01*
X142131286Y-83019478D01*
X141910860Y-83239903D01*
X141849537Y-83273387D01*
X141810580Y-83275579D01*
X141800026Y-83274501D01*
X141800013Y-83274500D01*
X141800009Y-83274500D01*
X141800003Y-83274500D01*
X141199999Y-83274500D01*
X141199983Y-83274501D01*
X141189413Y-83275581D01*
X141120721Y-83262807D01*
X141089138Y-83239903D01*
X140962590Y-83113355D01*
X140962588Y-83113352D01*
X140843717Y-82994481D01*
X140843709Y-82994475D01*
X140750087Y-82940423D01*
X140750085Y-82940422D01*
X140706790Y-82915425D01*
X140706789Y-82915424D01*
X140694263Y-82912067D01*
X140554057Y-82874499D01*
X140395943Y-82874499D01*
X140388347Y-82874499D01*
X140388331Y-82874500D01*
X138111669Y-82874500D01*
X138111653Y-82874499D01*
X138104057Y-82874499D01*
X137945943Y-82874499D01*
X137838587Y-82903265D01*
X137793210Y-82915424D01*
X137793209Y-82915425D01*
X137749915Y-82940422D01*
X137749913Y-82940423D01*
X137656290Y-82994475D01*
X137656282Y-82994481D01*
X137574480Y-83076284D01*
X137544480Y-83106284D01*
X137544478Y-83106286D01*
X137460579Y-83190185D01*
X137410861Y-83239903D01*
X137349538Y-83273387D01*
X137310582Y-83275579D01*
X137300028Y-83274501D01*
X137300012Y-83274500D01*
X137300009Y-83274500D01*
X137300004Y-83274500D01*
X136699998Y-83274500D01*
X136699980Y-83274501D01*
X136597203Y-83285000D01*
X136597200Y-83285001D01*
X136430668Y-83340185D01*
X136430663Y-83340187D01*
X136281342Y-83432289D01*
X136157289Y-83556342D01*
X136065187Y-83705663D01*
X136065186Y-83705666D01*
X136010001Y-83872203D01*
X136010001Y-83872204D01*
X136010000Y-83872204D01*
X135999500Y-83974983D01*
X135999500Y-84599902D01*
X135979815Y-84666941D01*
X135963181Y-84687583D01*
X135762584Y-84888181D01*
X135701261Y-84921666D01*
X135674903Y-84924500D01*
X133625097Y-84924500D01*
X133558058Y-84904815D01*
X133537416Y-84888181D01*
X133461818Y-84812583D01*
X133428333Y-84751260D01*
X133425499Y-84724902D01*
X133425499Y-83824998D01*
X133425498Y-83824981D01*
X133414999Y-83722203D01*
X133414998Y-83722200D01*
X133385971Y-83634603D01*
X133359814Y-83555666D01*
X133267712Y-83406344D01*
X133143656Y-83282288D01*
X132994334Y-83190186D01*
X132827797Y-83135001D01*
X132827795Y-83135000D01*
X132725010Y-83124500D01*
X131874998Y-83124500D01*
X131874980Y-83124501D01*
X131772203Y-83135000D01*
X131772200Y-83135001D01*
X131605668Y-83190185D01*
X131605663Y-83190187D01*
X131456342Y-83282289D01*
X131332289Y-83406342D01*
X131240396Y-83555325D01*
X131188448Y-83602049D01*
X131119485Y-83613272D01*
X131055403Y-83585428D01*
X131016547Y-83527359D01*
X131015082Y-83522320D01*
X131007260Y-83493129D01*
X130996790Y-83454052D01*
X130984577Y-83408471D01*
X130931940Y-83317302D01*
X130931939Y-83317300D01*
X130905522Y-83271543D01*
X130905521Y-83271542D01*
X130905520Y-83271540D01*
X130793716Y-83159736D01*
X130793715Y-83159735D01*
X130789385Y-83155405D01*
X130789374Y-83155395D01*
X130317334Y-82683355D01*
X130317332Y-82683352D01*
X130198461Y-82564481D01*
X130198460Y-82564480D01*
X130111648Y-82514360D01*
X130111648Y-82514359D01*
X130111644Y-82514358D01*
X130061529Y-82485423D01*
X129908801Y-82444499D01*
X129750687Y-82444499D01*
X129743091Y-82444499D01*
X129743075Y-82444500D01*
X127845097Y-82444500D01*
X127778058Y-82424815D01*
X127757416Y-82408181D01*
X127049318Y-81700083D01*
X127015833Y-81638760D01*
X127012999Y-81612402D01*
X127012999Y-80999998D01*
X127012998Y-80999981D01*
X127002499Y-80897203D01*
X127002498Y-80897200D01*
X126975095Y-80814504D01*
X126947314Y-80730666D01*
X126855212Y-80581344D01*
X126731156Y-80457288D01*
X126581834Y-80365186D01*
X126415297Y-80310001D01*
X126415295Y-80310000D01*
X126312510Y-80299500D01*
X125687498Y-80299500D01*
X125687480Y-80299501D01*
X125584703Y-80310000D01*
X125584700Y-80310001D01*
X125418168Y-80365185D01*
X125418163Y-80365187D01*
X125268842Y-80457289D01*
X125144789Y-80581342D01*
X125052687Y-80730663D01*
X125052686Y-80730666D01*
X124997501Y-80897203D01*
X124997501Y-80897204D01*
X124997500Y-80897204D01*
X124987000Y-80999983D01*
X124987000Y-82000001D01*
X124987001Y-82000019D01*
X124997500Y-82102796D01*
X124997501Y-82102799D01*
X125031767Y-82206206D01*
X125052686Y-82269334D01*
X125138012Y-82407671D01*
X125144789Y-82418657D01*
X125268844Y-82542712D01*
X125385979Y-82614961D01*
X125432704Y-82666909D01*
X125443927Y-82735871D01*
X125416083Y-82799954D01*
X125358015Y-82838810D01*
X125320883Y-82844500D01*
X122946118Y-82844500D01*
X122946102Y-82844499D01*
X122938506Y-82844499D01*
X122854119Y-82844499D01*
X122787080Y-82824814D01*
X122741325Y-82772010D01*
X122731381Y-82702852D01*
X122760406Y-82639296D01*
X122789020Y-82614961D01*
X122906156Y-82542712D01*
X123030212Y-82418656D01*
X123122314Y-82269334D01*
X123177499Y-82102797D01*
X123188000Y-82000009D01*
X123187999Y-80999992D01*
X123177499Y-80897203D01*
X123122314Y-80730666D01*
X123030212Y-80581344D01*
X122906156Y-80457288D01*
X122756834Y-80365186D01*
X122590297Y-80310001D01*
X122590295Y-80310000D01*
X122487510Y-80299500D01*
X121862498Y-80299500D01*
X121862480Y-80299501D01*
X121759703Y-80310000D01*
X121759700Y-80310001D01*
X121593168Y-80365185D01*
X121593163Y-80365187D01*
X121443842Y-80457289D01*
X121319789Y-80581342D01*
X121227687Y-80730663D01*
X121227685Y-80730668D01*
X121199905Y-80814504D01*
X121160132Y-80871949D01*
X121095616Y-80898772D01*
X121082199Y-80899500D01*
X117472686Y-80899500D01*
X117314571Y-80899500D01*
X117161844Y-80940423D01*
X117161843Y-80940423D01*
X117161841Y-80940424D01*
X117161838Y-80940425D01*
X117111725Y-80969359D01*
X117111724Y-80969360D01*
X117068318Y-80994420D01*
X117024914Y-81019479D01*
X117024911Y-81019481D01*
X114712181Y-83332212D01*
X114650858Y-83365697D01*
X114581166Y-83360713D01*
X114525233Y-83318841D01*
X114500816Y-83253377D01*
X114500500Y-83244531D01*
X114500500Y-79124500D01*
X114520185Y-79057461D01*
X114572989Y-79011706D01*
X114624500Y-79000500D01*
X146875500Y-79000500D01*
X146942539Y-79020185D01*
G37*
%TD.AperFunction*%
%TA.AperFunction,Conductor*%
G36*
X121149238Y-82120185D02*
G01*
X121194993Y-82172989D01*
X121199903Y-82185492D01*
X121227686Y-82269334D01*
X121313012Y-82407671D01*
X121319789Y-82418657D01*
X121443844Y-82542712D01*
X121560979Y-82614961D01*
X121607704Y-82666909D01*
X121618927Y-82735871D01*
X121591083Y-82799954D01*
X121533015Y-82838810D01*
X121495883Y-82844500D01*
X117938530Y-82844500D01*
X117897609Y-82855464D01*
X117897609Y-82855465D01*
X117860341Y-82865451D01*
X117785804Y-82885423D01*
X117785799Y-82885426D01*
X117648880Y-82964475D01*
X117648872Y-82964481D01*
X117537070Y-83076284D01*
X117537068Y-83076286D01*
X117457959Y-83155395D01*
X117396049Y-83217305D01*
X117342964Y-83248699D01*
X117189604Y-83293254D01*
X117189603Y-83293255D01*
X117048137Y-83376917D01*
X117048129Y-83376923D01*
X116931923Y-83493129D01*
X116931917Y-83493137D01*
X116848255Y-83634603D01*
X116848254Y-83634606D01*
X116802402Y-83792426D01*
X116802401Y-83792432D01*
X116799500Y-83829298D01*
X116799500Y-84810701D01*
X116800964Y-84829298D01*
X116786599Y-84897675D01*
X116761202Y-84927558D01*
X116762382Y-84928738D01*
X116649485Y-85041635D01*
X116573719Y-85172863D01*
X116534500Y-85319234D01*
X116534500Y-85470767D01*
X116539227Y-85488408D01*
X116537564Y-85558258D01*
X116498401Y-85616120D01*
X116434172Y-85643623D01*
X116419452Y-85644500D01*
X115648726Y-85644500D01*
X115581687Y-85624815D01*
X115561045Y-85608181D01*
X115516819Y-85563955D01*
X115483334Y-85502632D01*
X115480500Y-85476274D01*
X115480500Y-84313726D01*
X115500185Y-84246687D01*
X115516819Y-84226045D01*
X117606045Y-82136819D01*
X117667368Y-82103334D01*
X117693726Y-82100500D01*
X121082199Y-82100500D01*
X121149238Y-82120185D01*
G37*
%TD.AperFunction*%
%TA.AperFunction,Conductor*%
G36*
X128211942Y-84065185D02*
G01*
X128232584Y-84081819D01*
X128338181Y-84187416D01*
X128371666Y-84248739D01*
X128374500Y-84275097D01*
X128374500Y-85175001D01*
X128374501Y-85175019D01*
X128385000Y-85277796D01*
X128385001Y-85277799D01*
X128440185Y-85444331D01*
X128440190Y-85444342D01*
X128447013Y-85455403D01*
X128465454Y-85522795D01*
X128444532Y-85589459D01*
X128390890Y-85634228D01*
X128341475Y-85644500D01*
X123580548Y-85644500D01*
X123513509Y-85624815D01*
X123467754Y-85572011D01*
X123457810Y-85502853D01*
X123460773Y-85488408D01*
X123464024Y-85476274D01*
X123465500Y-85470766D01*
X123465500Y-85319234D01*
X123426281Y-85172865D01*
X123350515Y-85041635D01*
X123243365Y-84934485D01*
X123243364Y-84934484D01*
X123237618Y-84928738D01*
X123239480Y-84926875D01*
X123205965Y-84880977D01*
X123199036Y-84829292D01*
X123200351Y-84812583D01*
X123200500Y-84810694D01*
X123200500Y-84169500D01*
X123220185Y-84102461D01*
X123272989Y-84056706D01*
X123324500Y-84045500D01*
X128144903Y-84045500D01*
X128211942Y-84065185D01*
G37*
%TD.AperFunction*%
%TD*%
M02*
