%TF.GenerationSoftware,KiCad,Pcbnew,10.0.6*%
%TF.CreationDate,2026-10-07T22:33:56+01:00*%
%TF.ProjectId,project1_USB-C 5v Power Suplly PCB,70726f6a-6563-4743-915f-5553422d4320,rev?*%
%TF.SameCoordinates,Original*%
%TF.FileFunction,Copper,L2,Bot*%
%TF.FilePolarity,Positive*%
%FSLAX46Y46*%
G04 Gerber Fmt 4.6, Leading zero omitted, Abs format (unit mm)*
G04 Created by KiCad (PCBNEW 10.0.6) date 2026-10-07 22:33:56*
%MOMM*%
%LPD*%
G01*
G04 APERTURE LIST*
%TA.AperFunction,ComponentPad*%
%ADD10O,1.000000X2.100000*%
%TD*%
%TA.AperFunction,ComponentPad*%
%ADD11O,1.000000X1.800000*%
%TD*%
%TA.AperFunction,ComponentPad*%
%ADD12R,1.700000X1.700000*%
%TD*%
%TA.AperFunction,ComponentPad*%
%ADD13C,1.700000*%
%TD*%
G04 APERTURE END LIST*
D10*
%TO.P,J1,SH,SHIELD_SH*%
%TO.N,GND*%
X115680000Y-84895000D03*
D11*
X115680000Y-89075000D03*
D10*
X124320000Y-84895000D03*
D11*
X124320000Y-89075000D03*
%TD*%
D12*
%TO.P,J2,1,Pin_1_1*%
%TO.N,+5V*%
X145000000Y-83500000D03*
D13*
%TO.P,J2,2,Pin_2_2*%
%TO.N,GND*%
X145000000Y-86040000D03*
%TD*%
%TA.AperFunction,Conductor*%
%TO.N,GND*%
G36*
X146942539Y-79020185D02*
G01*
X146988294Y-79072989D01*
X146999500Y-79124500D01*
X146999500Y-93375500D01*
X146979815Y-93442539D01*
X146927011Y-93488294D01*
X146875500Y-93499500D01*
X114624500Y-93499500D01*
X114557461Y-93479815D01*
X114511706Y-93427011D01*
X114500500Y-93375500D01*
X114500500Y-85319234D01*
X116534500Y-85319234D01*
X116534500Y-85470765D01*
X116573719Y-85617136D01*
X116611602Y-85682750D01*
X116649485Y-85748365D01*
X116756635Y-85855515D01*
X116887865Y-85931281D01*
X117034234Y-85970500D01*
X117034236Y-85970500D01*
X117185764Y-85970500D01*
X117185766Y-85970500D01*
X117332135Y-85931281D01*
X117463365Y-85855515D01*
X117570515Y-85748365D01*
X117646281Y-85617135D01*
X117685500Y-85470766D01*
X117685500Y-85319234D01*
X122314500Y-85319234D01*
X122314500Y-85470765D01*
X122353719Y-85617136D01*
X122391602Y-85682750D01*
X122429485Y-85748365D01*
X122536635Y-85855515D01*
X122667865Y-85931281D01*
X122814234Y-85970500D01*
X122814236Y-85970500D01*
X122965764Y-85970500D01*
X122965766Y-85970500D01*
X123112135Y-85931281D01*
X123243365Y-85855515D01*
X123350515Y-85748365D01*
X123426281Y-85617135D01*
X123465500Y-85470766D01*
X123465500Y-85319234D01*
X123426281Y-85172865D01*
X123350515Y-85041635D01*
X123243365Y-84934485D01*
X123177750Y-84896602D01*
X123112136Y-84858719D01*
X123038950Y-84839109D01*
X122965766Y-84819500D01*
X122814234Y-84819500D01*
X122667863Y-84858719D01*
X122536635Y-84934485D01*
X122536632Y-84934487D01*
X122429487Y-85041632D01*
X122429485Y-85041635D01*
X122353719Y-85172863D01*
X122314500Y-85319234D01*
X117685500Y-85319234D01*
X117646281Y-85172865D01*
X117570515Y-85041635D01*
X117463365Y-84934485D01*
X117397750Y-84896602D01*
X117332136Y-84858719D01*
X117258950Y-84839109D01*
X117185766Y-84819500D01*
X117034234Y-84819500D01*
X116887863Y-84858719D01*
X116756635Y-84934485D01*
X116756632Y-84934487D01*
X116649487Y-85041632D01*
X116649485Y-85041635D01*
X116573719Y-85172863D01*
X116534500Y-85319234D01*
X114500500Y-85319234D01*
X114500500Y-82602135D01*
X143649500Y-82602135D01*
X143649500Y-84397870D01*
X143649501Y-84397876D01*
X143655908Y-84457483D01*
X143706202Y-84592328D01*
X143706206Y-84592335D01*
X143792452Y-84707544D01*
X143792455Y-84707547D01*
X143907664Y-84793793D01*
X143907671Y-84793797D01*
X144042517Y-84844091D01*
X144042516Y-84844091D01*
X144049444Y-84844835D01*
X144102127Y-84850500D01*
X145897872Y-84850499D01*
X145957483Y-84844091D01*
X146092331Y-84793796D01*
X146207546Y-84707546D01*
X146293796Y-84592331D01*
X146344091Y-84457483D01*
X146350500Y-84397873D01*
X146350499Y-82602128D01*
X146344091Y-82542517D01*
X146293796Y-82407669D01*
X146293795Y-82407668D01*
X146293793Y-82407664D01*
X146207547Y-82292455D01*
X146207544Y-82292452D01*
X146092335Y-82206206D01*
X146092328Y-82206202D01*
X145957482Y-82155908D01*
X145957483Y-82155908D01*
X145897883Y-82149501D01*
X145897881Y-82149500D01*
X145897873Y-82149500D01*
X145897864Y-82149500D01*
X144102129Y-82149500D01*
X144102123Y-82149501D01*
X144042516Y-82155908D01*
X143907671Y-82206202D01*
X143907664Y-82206206D01*
X143792455Y-82292452D01*
X143792452Y-82292455D01*
X143706206Y-82407664D01*
X143706202Y-82407671D01*
X143655908Y-82542517D01*
X143649501Y-82602116D01*
X143649501Y-82602123D01*
X143649500Y-82602135D01*
X114500500Y-82602135D01*
X114500500Y-79124500D01*
X114520185Y-79057461D01*
X114572989Y-79011706D01*
X114624500Y-79000500D01*
X146875500Y-79000500D01*
X146942539Y-79020185D01*
G37*
%TD.AperFunction*%
%TD*%
M02*
